ffmpeg started on 2025-05-12 at 18:31:11
Report written to "D:\Convert\FFMetrics\reports\ssim_report-6.txt"
Log level: 32
Command line:
ffmpeg -hide_banner -nostdin -i "G:\\\xc0\xed\xe8\xec\xe5\\\xce\xed\xe3\xee\xe8\xed\xe3\xe8\\!_35_\xcb\xe5\xf2\xee_2024\\DreamCast\\\xce\xf2\xf0\xff\xe4 \xf1\xe0\xec\xee\xf3\xe1\xe8\xe9\xf6 \xe8\xe7 \xe4\xf0\xf3\xe3\xee\xe3\xee \xec\xe8\xf0\xe0\\[DC] Isekai Suicide Squad - 10 [END]_Telegram_HEVC.mkv" -i "G:\\\xc0\xed\xe8\xec\xe5\\\xce\xed\xe3\xee\xe8\xed\xe3\xe8\\!_35_\xcb\xe5\xf2\xee_2024\\DreamCast\\\xce\xf2\xf0\xff\xe4 \xf1\xe0\xec\xee\xf3\xe1\xe8\xe9\xf6 \xe8\xe7 \xe4\xf0\xf3\xe3\xee\xe3\xee \xec\xe8\xf0\xe0\\[DC] Isekai Suicide Squad - 10 [END]_Telegram.mp4" -lavfi "[0:v]settb=AVTB,setpts=PTS-STARTPTS,format=pix_fmts=yuv420p10,fps=24000/1001,scale=1920:1080:flags=bicubic[main];[1:v]settb=AVTB,setpts=PTS-STARTPTS,format=pix_fmts=yuv420p,fps=24000/1001,scale=1920:1080:flags=bicubic[ref];[main][ref]ssim=eof_action=endall:stats_file='D\\:/Convert/FFMetrics/logs/ssim_logfile-6.txt'" -f null -
Input #0, matroska,webm, from 'G:\Аниме\Онгоинги\!_35_Лето_2024\DreamCast\Отряд самоубийц из другого мира\[DC] Isekai Suicide Squad - 10 [END]_Telegram_HEVC.mkv':
  Metadata:
    COMPATIBLE_BRANDS: isomiso2avc1mp41
    MAJOR_BRAND     : isom
    MINOR_VERSION   : 512
    ENCODER         : Lavf61.7.100
  Duration: 00:24:47.96, start: -0.021000, bitrate: 1871 kb/s
  Stream #0:0: Video: hevc (Main 10), yuv420p10le(tv, bt709, progressive), 1920x1080 [SAR 1:1 DAR 16:9], 23.98 fps, 23.98 tbr, 1k tbn (default)
      Metadata:
        HANDLER_NAME    : VideoHandler
        VENDOR_ID       : [0][0][0][0]
        ENCODER         : Lavc61.19.100 libx265
        BPS             : 1674475
        DURATION        : 00:24:47.861708333
        NUMBER_OF_FRAMES: 35673
        NUMBER_OF_BYTES : 311423399
        _STATISTICS_WRITING_APP: mkvpropedit v66.0.0 ('Josie') 64-bit
        _STATISTICS_WRITING_DATE_UTC: 2025-05-09 14:51:23
        _STATISTICS_TAGS: BPS DURATION NUMBER_OF_FRAMES NUMBER_OF_BYTES
  Stream #0:1: Audio: aac (LC), 48000 Hz, stereo, fltp (default)
      Metadata:
        HANDLER_NAME    : SoundHandler
        VENDOR_ID       : [0][0][0][0]
        ENCODER         : Lavc61.19.100 aac
        BPS             : 192576
        DURATION        : 00:24:47.957000000
        NUMBER_OF_FRAMES: 69749
        NUMBER_OF_BYTES : 35818239
        _STATISTICS_WRITING_APP: mkvpropedit v66.0.0 ('Josie') 64-bit
        _STATISTICS_WRITING_DATE_UTC: 2025-05-09 14:51:23
        _STATISTICS_TAGS: BPS DURATION NUMBER_OF_FRAMES NUMBER_OF_BYTES
Input #1, mov,mp4,m4a,3gp,3g2,mj2, from 'G:\Аниме\Онгоинги\!_35_Лето_2024\DreamCast\Отряд самоубийц из другого мира\[DC] Isekai Suicide Squad - 10 [END]_Telegram.mp4':
  Metadata:
    major_brand     : isom
    minor_version   : 512
    compatible_brands: isomiso2avc1mp41
    encoder         : Lavf60.16.100
  Duration: 00:24:47.93, start: 0.000000, bitrate: 3970 kb/s
  Stream #1:0[0x1](und): Video: h264 (High) (avc1 / 0x31637661), yuv420p(tv, bt709, progressive), 1920x1080 [SAR 1:1 DAR 16:9], 3822 kb/s, 23.98 fps, 23.98 tbr, 24k tbn (default)
      Metadata:
        handler_name    : VideoHandler
        vendor_id       : [0][0][0][0]
        encoder         : Lavc60.31.102 h264_qsv
  Stream #1:1[0x2](und): Audio: aac (HE-AACv2) (mp4a / 0x6134706D), 48000 Hz, stereo, fltp, 144 kb/s (default)
      Metadata:
        handler_name    : SoundHandler
        vendor_id       : [0][0][0][0]
Stream mapping:
  Stream #0:0 (hevc) -> settb:default
  Stream #1:0 (h264) -> settb:default
  ssim:default -> Stream #0:0 (wrapped_avframe)
  Stream #0:1 -> #0:1 (aac (native) -> pcm_s16le (native))
Output #0, null, to 'pipe:':
  Metadata:
    COMPATIBLE_BRANDS: isomiso2avc1mp41
    MAJOR_BRAND     : isom
    MINOR_VERSION   : 512
    encoder         : Lavf61.7.100
  Stream #0:0: Video: wrapped_avframe, yuv420p10le(tv, bt709, progressive), 1920x1080 [SAR 1:1 DAR 16:9], q=2-31, 200 kb/s, 23.98 fps, 23.98 tbn
      Metadata:
        encoder         : Lavc61.19.100 wrapped_avframe
  Stream #0:1: Audio: pcm_s16le, 48000 Hz, stereo, s16, 1536 kb/s (default)
      Metadata:
        HANDLER_NAME    : SoundHandler
        VENDOR_ID       : [0][0][0][0]
        _STATISTICS_TAGS: BPS DURATION NUMBER_OF_FRAMES NUMBER_OF_BYTES
        BPS             : 192576
        DURATION        : 00:24:47.957000000
        NUMBER_OF_FRAMES: 69749
        NUMBER_OF_BYTES : 35818239
        _STATISTICS_WRITING_APP: mkvpropedit v66.0.0 ('Josie') 64-bit
        _STATISTICS_WRITING_DATE_UTC: 2025-05-09 14:51:23
        encoder         : Lavc61.19.100 pcm_s16le
frame=  185 fps=0.0 q=-0.0 size=N/A time=00:00:07.71 bitrate=N/A speed=  15x    frame=  381 fps=368 q=-0.0 size=N/A time=00:00:15.89 bitrate=N/A speed=15.3x    frame=  617 fps=400 q=-0.0 size=N/A time=00:00:25.73 bitrate=N/A speed=16.7x    frame=  841 fps=407 q=-0.0 size=N/A time=00:00:35.07 bitrate=N/A speed=  17x    frame= 1056 fps=408 q=-0.0 size=N/A time=00:00:44.04 bitrate=N/A speed=  17x    frame= 1239 fps=400 q=-0.0 size=N/A time=00:00:51.67 bitrate=N/A speed=16.7x    frame= 1474 fps=407 q=-0.0 size=N/A time=00:01:01.47 bitrate=N/A speed=  17x    frame= 1674 fps=406 q=-0.0 size=N/A time=00:01:09.81 bitrate=N/A speed=16.9x    frame= 1898 fps=408 q=-0.0 size=N/A time=00:01:19.16 bitrate=N/A speed=  17x    frame= 2082 fps=404 q=-0.0 size=N/A time=00:01:26.83 bitrate=N/A speed=16.8x    frame= 2273 fps=400 q=-0.0 size=N/A time=00:01:34.80 bitrate=N/A speed=16.7x    frame= 2476 fps=400 q=-0.0 size=N/A time=00:01:43.26 bitrate=N/A speed=16.7x    frame= 2699 fps=402 q=-0.0 size=N/A time=00:01:52.57 bitrate=N/A speed=16.8x    frame= 2919 fps=404 q=-0.0 size=N/A time=00:02:01.74 bitrate=N/A speed=16.8x    frame= 3174 fps=410 q=-0.0 size=N/A time=00:02:12.38 bitrate=N/A speed=17.1x    frame= 3416 fps=414 q=-0.0 size=N/A time=00:02:22.47 bitrate=N/A speed=17.2x    frame= 3664 fps=418 q=-0.0 size=N/A time=00:02:32.81 bitrate=N/A speed=17.4x    frame= 3900 fps=420 q=-0.0 size=N/A time=00:02:42.66 bitrate=N/A speed=17.5x    frame= 4139 fps=423 q=-0.0 size=N/A time=00:02:52.63 bitrate=N/A speed=17.6x    frame= 4344 fps=421 q=-0.0 size=N/A time=00:03:01.18 bitrate=N/A speed=17.6x    frame= 4526 fps=418 q=-0.0 size=N/A time=00:03:08.77 bitrate=N/A speed=17.4x    frame= 4715 fps=415 q=-0.0 size=N/A time=00:03:16.65 bitrate=N/A speed=17.3x    frame= 4903 fps=414 q=-0.0 size=N/A time=00:03:24.49 bitrate=N/A speed=17.2x    frame= 5131 fps=414 q=-0.0 size=N/A time=00:03:34.00 bitrate=N/A speed=17.3x    frame= 5352 fps=415 q=-0.0 size=N/A time=00:03:43.22 bitrate=N/A speed=17.3x    frame= 5603 fps=418 q=-0.0 size=N/A time=00:03:53.69 bitrate=N/A speed=17.4x    frame= 5843 fps=420 q=-0.0 size=N/A time=00:04:03.70 bitrate=N/A speed=17.5x    frame= 6056 fps=419 q=-0.0 size=N/A time=00:04:12.58 bitrate=N/A speed=17.5x    frame= 6291 fps=421 q=-0.0 size=N/A time=00:04:22.38 bitrate=N/A speed=17.6x    frame= 6538 fps=423 q=-0.0 size=N/A time=00:04:32.68 bitrate=N/A speed=17.6x    frame= 6788 fps=424 q=-0.0 size=N/A time=00:04:43.11 bitrate=N/A speed=17.7x    frame= 7016 fps=425 q=-0.0 size=N/A time=00:04:52.62 bitrate=N/A speed=17.7x    frame= 7239 fps=425 q=-0.0 size=N/A time=00:05:01.92 bitrate=N/A speed=17.7x    frame= 7476 fps=427 q=-0.0 size=N/A time=00:05:11.81 bitrate=N/A speed=17.8x    frame= 7745 fps=429 q=-0.0 size=N/A time=00:05:23.03 bitrate=N/A speed=17.9x    frame= 7976 fps=430 q=-0.0 size=N/A time=00:05:32.66 bitrate=N/A speed=17.9x    frame= 8212 fps=430 q=-0.0 size=N/A time=00:05:42.50 bitrate=N/A speed=17.9x    frame= 8443 fps=431 q=-0.0 size=N/A time=00:05:52.14 bitrate=N/A speed=  18x    frame= 8691 fps=432 q=-0.0 size=N/A time=00:06:02.48 bitrate=N/A speed=  18x    frame= 8921 fps=433 q=-0.0 size=N/A time=00:06:12.08 bitrate=N/A speed=  18x    frame= 9170 fps=434 q=-0.0 size=N/A time=00:06:22.46 bitrate=N/A speed=18.1x    frame= 9417 fps=435 q=-0.0 size=N/A time=00:06:32.76 bitrate=N/A speed=18.1x    frame= 9654 fps=435 q=-0.0 size=N/A time=00:06:42.65 bitrate=N/A speed=18.2x    frame= 9897 fps=436 q=-0.0 size=N/A time=00:06:52.78 bitrate=N/A speed=18.2x    frame=10147 fps=437 q=-0.0 size=N/A time=00:07:03.21 bitrate=N/A speed=18.2x    frame=10377 fps=438 q=-0.0 size=N/A time=00:07:12.80 bitrate=N/A speed=18.3x    frame=10608 fps=438 q=-0.0 size=N/A time=00:07:22.44 bitrate=N/A speed=18.3x    frame=10816 fps=437 q=-0.0 size=N/A time=00:07:31.11 bitrate=N/A speed=18.2x    frame=11017 fps=436 q=-0.0 size=N/A time=00:07:39.50 bitrate=N/A speed=18.2x    frame=11255 fps=436 q=-0.0 size=N/A time=00:07:49.42 bitrate=N/A speed=18.2x    frame=11480 fps=437 q=-0.0 size=N/A time=00:07:58.81 bitrate=N/A speed=18.2x    frame=11731 fps=437 q=-0.0 size=N/A time=00:08:09.28 bitrate=N/A speed=18.2x    frame=11935 fps=437 q=-0.0 size=N/A time=00:08:17.78 bitrate=N/A speed=18.2x    frame=12139 fps=436 q=-0.0 size=N/A time=00:08:26.29 bitrate=N/A speed=18.2x    frame=12328 fps=435 q=-0.0 size=N/A time=00:08:34.18 bitrate=N/A speed=18.1x    frame=12535 fps=434 q=-0.0 size=N/A time=00:08:42.81 bitrate=N/A speed=18.1x    frame=12761 fps=434 q=-0.0 size=N/A time=00:08:52.24 bitrate=N/A speed=18.1x    frame=12973 fps=434 q=-0.0 size=N/A time=00:09:01.08 bitrate=N/A speed=18.1x    frame=13210 fps=434 q=-0.0 size=N/A time=00:09:10.96 bitrate=N/A speed=18.1x    frame=13424 fps=434 q=-0.0 size=N/A time=00:09:19.89 bitrate=N/A speed=18.1x    frame=13627 fps=433 q=-0.0 size=N/A time=00:09:28.35 bitrate=N/A speed=18.1x    frame=13832 fps=433 q=-0.0 size=N/A time=00:09:36.90 bitrate=N/A speed=  18x    frame=14049 fps=433 q=-0.0 size=N/A time=00:09:45.96 bitrate=N/A speed=  18x    frame=14263 fps=432 q=-0.0 size=N/A time=00:09:54.88 bitrate=N/A speed=  18x    frame=14525 fps=433 q=-0.0 size=N/A time=00:10:05.81 bitrate=N/A speed=18.1x    frame=14802 fps=435 q=-0.0 size=N/A time=00:10:17.36 bitrate=N/A speed=18.1x    frame=15042 fps=435 q=-0.0 size=N/A time=00:10:27.37 bitrate=N/A speed=18.2x    frame=15295 fps=436 q=-0.0 size=N/A time=00:10:37.92 bitrate=N/A speed=18.2x    frame=15498 fps=436 q=-0.0 size=N/A time=00:10:46.39 bitrate=N/A speed=18.2x    frame=15701 fps=435 q=-0.0 size=N/A time=00:10:54.86 bitrate=N/A speed=18.1x    frame=15899 fps=434 q=-0.0 size=N/A time=00:11:03.12 bitrate=N/A speed=18.1x    frame=16106 fps=434 q=-0.0 size=N/A time=00:11:11.75 bitrate=N/A speed=18.1x    frame=16359 fps=435 q=-0.0 size=N/A time=00:11:22.30 bitrate=N/A speed=18.1x    frame=16586 fps=435 q=-0.0 size=N/A time=00:11:31.77 bitrate=N/A speed=18.1x    frame=16835 fps=435 q=-0.0 size=N/A time=00:11:42.15 bitrate=N/A speed=18.2x    frame=17059 fps=435 q=-0.0 size=N/A time=00:11:51.50 bitrate=N/A speed=18.2x    frame=17288 fps=435 q=-0.0 size=N/A time=00:12:01.05 bitrate=N/A speed=18.2x    frame=17459 fps=434 q=-0.0 size=N/A time=00:12:08.18 bitrate=N/A speed=18.1x    frame=17680 fps=434 q=-0.0 size=N/A time=00:12:17.40 bitrate=N/A speed=18.1x    frame=17873 fps=433 q=-0.0 size=N/A time=00:12:25.45 bitrate=N/A speed=18.1x    frame=18074 fps=433 q=-0.0 size=N/A time=00:12:33.83 bitrate=N/A speed=  18x    frame=18269 fps=432 q=-0.0 size=N/A time=00:12:41.96 bitrate=N/A speed=  18x    frame=18454 fps=431 q=-0.0 size=N/A time=00:12:49.68 bitrate=N/A speed=  18x    frame=18652 fps=431 q=-0.0 size=N/A time=00:12:57.94 bitrate=N/A speed=  18x    frame=18856 fps=430 q=-0.0 size=N/A time=00:13:06.45 bitrate=N/A speed=17.9x    frame=19066 fps=430 q=-0.0 size=N/A time=00:13:15.21 bitrate=N/A speed=17.9x    frame=19292 fps=430 q=-0.0 size=N/A time=00:13:24.63 bitrate=N/A speed=17.9x    frame=19488 fps=429 q=-0.0 size=N/A time=00:13:32.81 bitrate=N/A speed=17.9x    frame=19636 fps=428 q=-0.0 size=N/A time=00:13:38.98 bitrate=N/A speed=17.8x    frame=19815 fps=427 q=-0.0 size=N/A time=00:13:46.45 bitrate=N/A speed=17.8x    frame=19972 fps=425 q=-0.0 size=N/A time=00:13:52.99 bitrate=N/A speed=17.7x    frame=20142 fps=424 q=-0.0 size=N/A time=00:14:00.08 bitrate=N/A speed=17.7x    frame=20347 fps=424 q=-0.0 size=N/A time=00:14:08.63 bitrate=N/A speed=17.7x    frame=20533 fps=423 q=-0.0 size=N/A time=00:14:16.39 bitrate=N/A speed=17.7x    frame=20709 fps=423 q=-0.0 size=N/A time=00:14:23.73 bitrate=N/A speed=17.6x    frame=20901 fps=422 q=-0.0 size=N/A time=00:14:31.74 bitrate=N/A speed=17.6x    frame=21130 fps=422 q=-0.0 size=N/A time=00:14:41.29 bitrate=N/A speed=17.6x    frame=21358 fps=422 q=-0.0 size=N/A time=00:14:50.80 bitrate=N/A speed=17.6x    frame=21585 fps=423 q=-0.0 size=N/A time=00:15:00.27 bitrate=N/A speed=17.6x    frame=21789 fps=422 q=-0.0 size=N/A time=00:15:08.78 bitrate=N/A speed=17.6x    frame=21994 fps=422 q=-0.0 size=N/A time=00:15:17.33 bitrate=N/A speed=17.6x    frame=22198 fps=422 q=-0.0 size=N/A time=00:15:25.84 bitrate=N/A speed=17.6x    frame=22394 fps=421 q=-0.0 size=N/A time=00:15:34.01 bitrate=N/A speed=17.6x    frame=22598 fps=421 q=-0.0 size=N/A time=00:15:42.52 bitrate=N/A speed=17.6x    frame=22829 fps=421 q=-0.0 size=N/A time=00:15:52.15 bitrate=N/A speed=17.6x    frame=23036 fps=421 q=-0.0 size=N/A time=00:16:00.79 bitrate=N/A speed=17.6x    frame=23293 fps=422 q=-0.0 size=N/A time=00:16:11.51 bitrate=N/A speed=17.6x    frame=23525 fps=422 q=-0.0 size=N/A time=00:16:21.18 bitrate=N/A speed=17.6x    frame=23757 fps=422 q=-0.0 size=N/A time=00:16:30.86 bitrate=N/A speed=17.6x    frame=24001 fps=423 q=-0.0 size=N/A time=00:16:41.04 bitrate=N/A speed=17.6x    frame=24259 fps=424 q=-0.0 size=N/A time=00:16:51.80 bitrate=N/A speed=17.7x    frame=24488 fps=424 q=-0.0 size=N/A time=00:17:01.35 bitrate=N/A speed=17.7x    frame=24693 fps=423 q=-0.0 size=N/A time=00:17:09.90 bitrate=N/A speed=17.7x    frame=24902 fps=423 q=-0.0 size=N/A time=00:17:18.62 bitrate=N/A speed=17.7x    frame=25106 fps=423 q=-0.0 size=N/A time=00:17:27.12 bitrate=N/A speed=17.6x    frame=25331 fps=423 q=-0.0 size=N/A time=00:17:36.51 bitrate=N/A speed=17.6x    frame=25558 fps=423 q=-0.0 size=N/A time=00:17:45.98 bitrate=N/A speed=17.6x    frame=25775 fps=423 q=-0.0 size=N/A time=00:17:55.03 bitrate=N/A speed=17.7x    frame=25978 fps=423 q=-0.0 size=N/A time=00:18:03.49 bitrate=N/A speed=17.6x    frame=26202 fps=423 q=-0.0 size=N/A time=00:18:12.84 bitrate=N/A speed=17.6x    frame=26408 fps=423 q=-0.0 size=N/A time=00:18:21.43 bitrate=N/A speed=17.6x    frame=26589 fps=422 q=-0.0 size=N/A time=00:18:28.98 bitrate=N/A speed=17.6x    frame=26827 fps=423 q=-0.0 size=N/A time=00:18:38.90 bitrate=N/A speed=17.6x    frame=27073 fps=423 q=-0.0 size=N/A time=00:18:49.12 bitrate=N/A speed=17.6x    frame=27342 fps=424 q=-0.0 size=N/A time=00:19:00.38 bitrate=N/A speed=17.7x    frame=27546 fps=424 q=-0.0 size=N/A time=00:19:08.89 bitrate=N/A speed=17.7x    frame=27752 fps=423 q=-0.0 size=N/A time=00:19:17.48 bitrate=N/A speed=17.7x    frame=27947 fps=423 q=-0.0 size=N/A time=00:19:25.62 bitrate=N/A speed=17.6x    frame=28136 fps=423 q=-0.0 size=N/A time=00:19:33.50 bitrate=N/A speed=17.6x    frame=28368 fps=423 q=-0.0 size=N/A time=00:19:43.18 bitrate=N/A speed=17.6x    frame=28546 fps=422 q=-0.0 size=N/A time=00:19:50.60 bitrate=N/A speed=17.6x    frame=28747 fps=422 q=-0.0 size=N/A time=00:19:58.98 bitrate=N/A speed=17.6x    frame=28998 fps=422 q=-0.0 size=N/A time=00:20:09.45 bitrate=N/A speed=17.6x    frame=29223 fps=423 q=-0.0 size=N/A time=00:20:18.84 bitrate=N/A speed=17.6x    frame=29481 fps=423 q=-0.0 size=N/A time=00:20:29.60 bitrate=N/A speed=17.6x    frame=29730 fps=424 q=-0.0 size=N/A time=00:20:39.98 bitrate=N/A speed=17.7x    frame=29974 fps=424 q=-0.0 size=N/A time=00:20:50.16 bitrate=N/A speed=17.7x    frame=30182 fps=424 q=-0.0 size=N/A time=00:20:58.84 bitrate=N/A speed=17.7x    frame=30447 fps=424 q=-0.0 size=N/A time=00:21:09.89 bitrate=N/A speed=17.7x    frame=30713 fps=425 q=-0.0 size=N/A time=00:21:20.98 bitrate=N/A speed=17.7x    frame=30977 fps=426 q=-0.0 size=N/A time=00:21:31.99 bitrate=N/A speed=17.8x    frame=31248 fps=426 q=-0.0 size=N/A time=00:21:43.30 bitrate=N/A speed=17.8x    frame=31454 fps=426 q=-0.0 size=N/A time=00:21:51.89 bitrate=N/A speed=17.8x    frame=31673 fps=426 q=-0.0 size=N/A time=00:22:01.02 bitrate=N/A speed=17.8x    frame=31851 fps=426 q=-0.0 size=N/A time=00:22:08.45 bitrate=N/A speed=17.8x    frame=32096 fps=426 q=-0.0 size=N/A time=00:22:18.67 bitrate=N/A speed=17.8x    frame=32339 fps=426 q=-0.0 size=N/A time=00:22:28.80 bitrate=N/A speed=17.8x    frame=32540 fps=426 q=-0.0 size=N/A time=00:22:37.18 bitrate=N/A speed=17.8x    frame=32791 fps=426 q=-0.0 size=N/A time=00:22:47.65 bitrate=N/A speed=17.8x    frame=33001 fps=426 q=-0.0 size=N/A time=00:22:56.41 bitrate=N/A speed=17.8x    frame=33262 fps=427 q=-0.0 size=N/A time=00:23:07.30 bitrate=N/A speed=17.8x    frame=33500 fps=427 q=-0.0 size=N/A time=00:23:17.22 bitrate=N/A speed=17.8x    frame=33755 fps=427 q=-0.0 size=N/A time=00:23:27.86 bitrate=N/A speed=17.8x    frame=34007 fps=428 q=-0.0 size=N/A time=00:23:38.37 bitrate=N/A speed=17.8x    frame=34282 fps=429 q=-0.0 size=N/A time=00:23:49.84 bitrate=N/A speed=17.9x    frame=34536 fps=429 q=-0.0 size=N/A time=00:24:00.43 bitrate=N/A speed=17.9x    frame=34796 fps=429 q=-0.0 size=N/A time=00:24:11.28 bitrate=N/A speed=17.9x    frame=35057 fps=430 q=-0.0 size=N/A time=00:24:22.16 bitrate=N/A speed=17.9x    frame=35244 fps=430 q=-0.0 size=N/A time=00:24:29.96 bitrate=N/A speed=17.9x    frame=35461 fps=430 q=-0.0 size=N/A time=00:24:39.01 bitrate=N/A speed=17.9x    [Parsed_ssim_10 @ 0000019b07b2afc0] SSIM Y:0.992460 (21.226085) U:0.992806 (21.430376) V:0.992659 (21.342449) All:0.992551 (21.278800)
[out#0/null @ 0000019b7a651c00] video:15328KiB audio:278996KiB subtitle:0KiB other streams:0KiB global headers:0KiB muxing overhead: unknown
frame=35673 fps=430 q=-0.0 Lsize=N/A time=00:24:47.86 bitrate=N/A speed=17.9x    
